# xmcd
#
# Track frame offsets: 
#        150
#        16502
#        32524
#        48229
#        68597
#        81807
#        99168
#        118030
#        136730
#        151152
#        173971
#        189338
#        207507
#        225444
#        240347
#        261197
#        286431
#        307558
#        323198
#
# Disc length: 4747 seconds
#
# Revision: 0
# Processed by: cddbd v1.5.2PL0 Copyright (c) Steve Scherf et al.
# Submitted via: ExactAudioCopy v1.3
#
DISCID=e0128913
DTITLE=Various Artist - Akella Presents - vol. 172 - Rockin' Blues  C
DTITLE=D1
DYEAR=2019
DGENRE=Blues
TTITLE0=Mick Clarke - The Killingest Place
TTITLE1=The D.B. Walker Band - It Ain't Long
TTITLE2=M Train - Stranded
TTITLE3=Andreas Diehlmann Band - Way Down South
TTITLE4=Adi Barar Band - La Grange
TTITLE5=Uni Debess - Pride And Joy
TTITLE6=The Steel Woods - All Of These Years
TTITLE7=Hammer Smith Band - Paths I Haven't Tried
TTITLE8=Fathead - Blues Weather
TTITLE9=Dave Steffen Band - Flying Potion
TTITLE10=Big Gilson and The Wolf - Ride The Rocket
TTITLE11=The Victory In Heaven Band - Wrong Side Of The Blues
TTITLE12=Kenny Beedy Eyes Smith - Drop The Hammer
TTITLE13=Southern Rock Junkies - Butterfly In The Sun
TTITLE14=Blues Cousins - I'll Be Waiting
TTITLE15=Alex Zayas - Deal With The Blues
TTITLE16=Too Slim and The Taildraggers - Wishing Well
TTITLE17=Bo Diddley - Ain't It Good To Be Free
TTITLE18=The BigBlue - My Hometown
EXTD=
EXTT0=
EXTT1=
EXTT2=
EXTT3=
EXTT4=
EXTT5=
EXTT6=
EXTT7=
EXTT8=
EXTT9=
EXTT10=
EXTT11=
EXTT12=
EXTT13=
EXTT14=
EXTT15=
EXTT16=
EXTT17=
EXTT18=
PLAYORDER=
